<svg version="1.1" id="Layer_1" xmlns="http://www.w3.org/2000/svg" xmlns:xlink="http://www.w3.org/1999/xlink" x="0px" y="0px"
	 width="100%" viewBox="0 0 2048 2048" enable-background="new 0 0 2048 2048" xml:space="preserve">
<path fill="#FFFFFF" opacity="1.000000" stroke="none" 
	d="
M1283.000000,2049.000000 
	C855.333313,2049.000000 428.166656,2049.000000 1.000000,2049.000000 
	C1.000000,1366.333374 1.000000,683.666687 1.000000,1.000000 
	C683.666687,1.000000 1366.333374,1.000000 2049.000000,1.000000 
	C2049.000000,683.666687 2049.000000,1366.333374 2049.000000,2049.000000 
	C1793.833374,2049.000000 1538.666626,2049.000000 1283.000000,2049.000000 
M1173.342285,937.009460 
	C1171.515625,938.711121 1169.645386,940.368530 1167.868774,942.121094 
	C1140.478638,969.141846 1112.878906,995.955383 1085.817139,1023.301392 
	C1073.059082,1036.193604 1058.185913,1042.172241 1040.231689,1042.160400 
	C953.942749,1042.103516 867.653748,1042.251587 780.731506,1041.828979 
	C780.541809,1040.897705 779.998169,1039.871460 780.218201,1039.049927 
	C782.063599,1032.159912 783.716980,1025.191040 786.071533,1018.471313 
	C789.504944,1008.672180 796.354431,1002.238770 806.757935,1000.296997 
	C810.975220,999.509766 815.327271,999.112549 819.618835,999.106506 
	C873.932983,999.029602 928.247253,999.058228 982.561523,999.048523 
	C984.124695,999.048218 985.687927,998.920654 987.776428,998.829468 
	C986.991699,997.760254 986.671448,997.202942 986.239441,996.752808 
	C969.533325,979.343506 952.816040,961.944946 936.103394,944.541809 
	C934.835449,943.221375 933.268677,942.057983 932.403870,940.507568 
	C930.665588,937.391235 928.105835,936.908447 924.859680,936.913208 
	C877.209900,936.983154 829.559814,936.934753 781.910034,937.006348 
	C777.951355,937.012268 773.880798,937.207092 770.054688,938.120361 
	C750.878601,942.697876 737.289185,953.374695 731.754272,973.150208 
	C721.467590,1009.903259 710.885437,1046.573608 700.441467,1083.282715 
	C698.277649,1090.888184 696.179688,1098.512451 693.829468,1106.922119 
	C700.915588,1106.922119 707.355408,1106.979248 713.793884,1106.911987 
	C738.420959,1106.654541 763.046997,1106.232178 787.674500,1106.130859 
	C799.075256,1106.083862 810.479492,1106.901978 821.880249,1106.856201 
	C844.675720,1106.764771 867.469238,1106.265869 890.264771,1106.116821 
	C897.062866,1106.072388 903.863770,1106.839478 910.665283,1106.875488 
	C931.260376,1106.984253 951.856506,1106.942017 972.451904,1106.867065 
	C973.969910,1106.861450 975.485352,1106.125366 977.830322,1105.903931 
	C980.304688,1106.152466 982.778564,1106.611816 985.253418,1106.616455 
	C1007.414062,1106.658813 1029.575928,1106.739868 1051.734863,1106.532593 
	C1058.199097,1106.471924 1064.764282,1106.094360 1071.096558,1104.884888 
	C1107.866943,1097.861572 1133.387573,1076.994995 1145.204346,1041.315918 
	C1152.832397,1018.283997 1158.564209,994.620483 1165.018311,971.204895 
	C1168.150635,959.840820 1170.990356,948.396118 1174.176392,936.891968 
	C1174.176392,936.891968 1174.196289,936.635803 1174.196289,936.635803 
	C1174.196289,936.635803 1174.027466,937.050903 1173.342285,937.009460 
M1066.109863,886.609680 
	C1061.255371,891.318848 1056.401001,896.028076 1051.461060,900.820129 
	C1050.150513,899.693298 1049.352295,899.112183 1048.678101,898.411621 
	C1038.511597,887.847351 1028.360229,877.268372 1018.207581,866.690857 
	C1002.632690,850.464355 987.149658,834.148438 971.450134,818.043457 
	C962.707336,809.074951 956.806274,809.321167 948.198547,818.165283 
	C939.715576,826.881104 931.147766,835.514832 922.567261,844.134949 
	C918.371582,848.350037 914.062317,852.452087 909.573730,856.830261 
	C911.353394,858.859314 912.706848,860.517578 914.178833,862.062988 
	C931.069641,879.796936 948.026550,897.468140 964.870422,915.246460 
	C987.213379,938.828796 1009.347656,962.610168 1031.820801,986.067200 
	C1042.521973,997.236877 1056.886597,997.352234 1068.390503,986.986938 
	C1071.234619,984.424377 1073.911743,981.672607 1076.611816,978.954529 
	C1102.796021,952.596802 1128.927979,926.187195 1155.153198,899.870483 
	C1208.074585,846.764343 1261.042725,793.705017 1314.001831,740.636597 
	C1316.074585,738.559570 1318.252686,736.587708 1320.892334,734.082092 
	C1328.230591,746.313538 1335.243530,758.002808 1342.997803,770.927856 
	C1360.120239,713.843445 1376.819092,658.170959 1394.019897,600.825012 
	C1339.268799,622.019226 1285.768433,642.729309 1231.029907,663.918640 
	C1244.451782,671.051392 1256.655518,677.536865 1269.472656,684.348267 
	C1201.489136,751.961975 1134.048950,819.035278 1066.109863,886.609680 
M1196.500000,474.844818 
	C1116.030396,474.855042 1035.559937,474.660645 955.091431,474.965729 
	C917.375549,475.108704 888.137512,491.526123 868.203003,523.650024 
	C864.099365,530.262939 861.537476,537.832458 857.801392,545.970703 
	C861.164124,545.970703 862.802979,545.970215 864.441833,545.970825 
	C947.076782,546.002075 1029.711670,546.033752 1112.346680,546.064453 
	C1130.006592,546.070984 1147.667480,546.197632 1165.326050,546.045654 
	C1184.793335,545.878113 1201.556396,560.756226 1194.747314,584.024780 
	C1189.563599,601.738953 1184.765869,619.566833 1179.869995,637.364319 
	C1178.321655,642.992920 1177.010864,648.686768 1175.412598,655.063904 
	C1202.614502,643.566650 1228.690552,632.622009 1254.651855,621.411865 
	C1256.529419,620.601196 1258.305054,618.065125 1258.895264,615.981934 
	C1271.047974,573.086426 1283.026855,530.141602 1295.021973,487.201447 
	C1296.112305,483.298126 1297.080078,479.360535 1298.260498,474.842743 
	C1264.092041,474.842743 1230.796021,474.842743 1196.500000,474.844818 
M998.500000,575.968262 
	C906.677795,575.977539 814.855530,575.979004 723.033325,576.004456 
	C709.189758,576.008301 696.438782,585.731323 693.034912,598.748840 
	C687.697510,619.160828 703.709534,638.967224 725.681580,638.974915 
	C858.498596,639.021240 991.315857,638.930176 1124.132446,639.169312 
	C1143.310303,639.203857 1155.818481,625.952026 1159.813599,610.238342 
	C1164.906738,590.206360 1152.323730,575.426941 1132.479858,575.754761 
	C1088.164185,576.486816 1043.827881,575.973816 998.500000,575.968262 
M1025.500000,754.064758 
	C917.035461,754.022522 808.570801,753.925232 700.106567,754.100769 
	C694.687561,754.109558 688.538757,755.261841 683.991272,757.986816 
	C669.731201,766.532104 666.556824,779.095947 669.758301,793.136536 
	C673.118103,807.871826 685.774902,816.936890 700.872559,816.976501 
	C713.201782,817.008911 725.531189,816.990417 737.860474,816.993652 
	C791.676208,817.007874 845.492065,817.049438 899.307556,816.946167 
	C901.747803,816.941528 904.750671,816.301697 906.528992,814.810059 
	C915.433838,807.341064 924.091919,799.571045 932.698425,791.754578 
	C949.375488,776.608337 977.461670,775.671509 993.495117,788.865601 
	C999.354370,793.687317 1004.309937,799.614258 1009.626526,805.086731 
	C1021.225769,817.025940 1032.824707,828.965698 1044.354492,840.971924 
	C1048.460327,845.247437 1052.365479,849.715698 1056.170044,853.885437 
	C1071.303711,838.910461 1085.986084,824.429016 1100.582520,809.861328 
	C1101.948975,808.497559 1103.268677,806.724609 1103.760742,804.911194 
	C1105.625000,798.040039 1107.726562,791.151550 1108.654907,784.126221 
	C1110.289185,771.760193 1105.369995,759.210876 1091.786499,755.602173 
	C1086.895142,754.302734 1081.600098,754.187805 1076.483032,754.134705 
	C1059.823486,753.961853 1043.161255,754.067261 1025.500000,754.064758 
M674.435181,1570.994507 
	C669.818542,1564.118530 665.201843,1557.242676 660.641113,1550.450073 
	C635.529053,1561.761963 619.576660,1560.492920 612.946289,1546.916626 
	C613.045593,1546.789307 613.118530,1546.614746 613.248474,1546.542358 
	C614.117249,1546.056641 615.005371,1545.605713 615.874023,1545.119751 
	C648.294861,1526.984619 668.171387,1500.219971 671.121277,1462.592163 
	C673.532227,1431.838745 664.637817,1404.563110 642.622742,1382.412476 
	C616.542114,1356.171143 583.983093,1349.207886 549.081482,1355.444824 
	C478.160126,1368.118164 450.895386,1440.917114 476.403320,1497.233887 
	C493.654602,1535.321411 525.343994,1552.754639 566.015930,1555.507080 
	C569.129395,1555.717773 571.118469,1556.592651 573.116699,1559.017944 
	C577.239380,1564.021851 581.516235,1568.982544 586.285400,1573.354858 
	C603.498535,1589.135498 623.381470,1597.193604 647.068604,1592.909668 
	C659.192322,1590.716919 669.321350,1584.747559 677.969421,1576.019775 
	C676.765381,1574.280762 675.821777,1572.917969 674.435181,1570.994507 
M938.500000,728.936951 
	C990.816589,728.937744 1043.133423,729.030701 1095.449585,728.893311 
	C1116.004272,728.839355 1130.066162,718.283386 1134.481934,698.228516 
	C1138.464355,680.141846 1127.174438,665.104248 1108.712036,665.086365 
	C1014.575684,664.995178 920.439270,665.058777 826.302917,664.958618 
	C822.830750,664.954956 821.232544,666.089233 820.315735,669.342651 
	C816.039917,684.514832 811.579102,699.634827 807.231323,714.786926 
	C806.033508,718.961365 804.997986,723.182373 803.476868,728.937561 
	C848.989746,728.937561 893.244873,728.937561 938.500000,728.936951 
M666.379150,908.131531 
	C744.673157,908.131531 822.967102,908.131531 902.105530,908.131531 
	C881.246643,886.708740 861.075928,865.919006 840.745178,845.287048 
	C839.462097,843.984985 836.931335,843.348145 834.981506,843.349304 
	C774.837463,843.383911 714.693481,843.535034 654.549561,843.688965 
	C653.516418,843.691589 652.484009,843.951050 650.981506,844.154236 
	C658.600159,853.955444 662.697449,864.403625 662.354492,876.445801 
	C662.015442,888.351501 656.750366,898.307251 649.440674,908.126404 
	C655.425415,908.126404 660.417114,908.126404 666.379150,908.131531 
M1098.045532,1429.500000 
	C1098.045532,1469.444214 1098.045532,1509.388550 1098.045532,1549.602295 
	C1111.218384,1549.602295 1123.760986,1549.602295 1136.656494,1549.602295 
	C1136.656494,1539.450928 1136.651123,1529.655396 1136.662720,1519.859741 
	C1136.664185,1518.542969 1136.243774,1516.872681 1136.877075,1515.964966 
	C1142.335815,1508.139526 1147.991699,1500.451782 1153.924194,1492.259888 
	C1155.902344,1495.442383 1157.365356,1497.659790 1158.693848,1499.955200 
	C1167.615967,1515.370850 1176.580933,1530.762695 1185.347046,1546.266846 
	C1186.936890,1549.078735 1188.655640,1550.257812 1191.965942,1550.188354 
	C1202.960205,1549.957642 1213.961792,1550.087402 1224.960449,1550.039673 
	C1226.351685,1550.033569 1227.741821,1549.795166 1229.433472,1549.636108 
	C1228.980713,1548.550903 1228.806641,1547.912964 1228.475464,1547.371094 
	C1212.928101,1521.942749 1197.426514,1496.485840 1181.729248,1471.150146 
	C1179.850098,1468.116943 1179.651489,1466.352783 1182.196167,1463.488892 
	C1196.250244,1447.672485 1210.033813,1431.615601 1223.890381,1415.624146 
	C1224.895264,1414.464478 1225.743042,1413.168701 1227.252075,1411.148560 
	C1213.154785,1411.148560 1200.196289,1411.074219 1187.241699,1411.257446 
	C1185.869263,1411.276978 1184.209717,1412.534790 1183.203613,1413.676636 
	C1168.666504,1430.172852 1154.222656,1446.751343 1139.733154,1463.289429 
	C1139.184937,1463.915161 1138.399414,1464.332764 1136.824219,1465.533813 
	C1136.824219,1427.415649 1136.824219,1390.353271 1136.824219,1353.247314 
	C1123.627319,1353.247314 1111.057251,1353.247314 1098.044800,1353.247314 
	C1098.044800,1378.584229 1098.044800,1403.542114 1098.045532,1429.500000 
M1307.871338,1548.564697 
	C1349.321533,1561.265991 1392.825439,1546.401855 1413.185547,1518.911865 
	C1407.449341,1513.474976 1401.719971,1507.929688 1395.860840,1502.525146 
	C1390.653687,1497.721802 1390.687866,1497.901611 1385.430786,1502.536743 
	C1366.312134,1519.393799 1344.328369,1525.029175 1319.972778,1517.172729 
	C1297.014771,1509.767090 1283.441650,1492.907837 1279.231812,1469.572998 
	C1274.607544,1443.940063 1280.153198,1420.501587 1300.835449,1403.071777 
	C1321.554321,1385.611206 1354.041382,1385.783447 1377.192505,1402.356201 
	C1381.494751,1405.436157 1385.655151,1408.714600 1390.364258,1412.265747 
	C1397.531006,1404.324219 1404.502441,1396.599121 1411.693359,1388.630859 
	C1410.085571,1386.871704 1408.892822,1385.519409 1407.650146,1384.214600 
	C1392.502808,1368.309082 1373.293579,1361.309204 1352.002441,1359.056763 
	C1328.900391,1356.612671 1306.691406,1359.565430 1286.499756,1371.737549 
	C1258.752930,1388.464233 1245.002563,1413.824219 1241.530273,1445.582275 
	C1236.393433,1492.563477 1262.402100,1533.564575 1307.871338,1548.564697 
M1502.505859,1549.951294 
	C1506.671387,1549.964478 1510.849487,1549.784424 1514.998291,1550.054932 
	C1518.054810,1550.254272 1519.562378,1548.916870 1520.565430,1546.273560 
	C1523.811401,1537.719116 1527.087646,1529.175049 1530.455811,1520.668091 
	C1548.772583,1474.405273 1567.140015,1428.162598 1585.435059,1381.891113 
	C1587.958984,1375.507690 1590.177612,1369.003540 1592.543945,1362.538086 
	C1591.515015,1362.199951 1591.206665,1362.015015 1590.894653,1362.008423 
	C1583.567993,1361.854004 1576.241211,1361.642212 1568.913574,1361.597290 
	C1556.612671,1361.521851 1556.612427,1361.567505 1552.267822,1372.795166 
	C1552.207764,1372.950562 1552.129639,1373.098877 1552.071899,1373.255005 
	C1538.963135,1408.698364 1525.865967,1444.146118 1512.738647,1479.582642 
	C1510.172119,1486.510986 1507.489258,1493.396362 1504.419800,1501.458130 
	C1503.236816,1498.917480 1502.545044,1497.666016 1502.053345,1496.340210 
	C1496.032104,1480.106445 1490.104492,1463.837769 1484.026123,1447.625488 
	C1473.800293,1420.350098 1463.515869,1393.096313 1453.119141,1365.885986 
	C1452.534302,1364.355591 1450.736084,1362.223755 1449.456055,1362.190918 
	C1438.160522,1361.900513 1426.854492,1362.022339 1414.843750,1362.022339 
	C1415.541870,1364.202515 1415.952026,1365.764404 1416.534180,1367.259399 
	C1424.687012,1388.197876 1432.891846,1409.116333 1441.027344,1430.061523 
	C1454.890503,1465.753540 1468.666992,1501.479126 1482.578979,1537.151978 
	C1487.567749,1549.943970 1487.698364,1549.893066 1502.505859,1549.951294 
M742.596252,1416.813477 
	C742.491760,1415.209717 742.387268,1413.605835 742.264893,1411.727783 
	C729.097595,1411.727783 716.357971,1411.727783 703.006836,1411.727783 
	C703.006836,1413.752686 703.004822,1415.530273 703.007202,1417.307861 
	C703.029358,1434.129761 702.950256,1450.952637 703.109192,1467.773193 
	C703.223938,1479.921997 703.157959,1492.105835 704.079773,1504.204712 
	C705.086426,1517.418091 709.457703,1529.621582 718.985840,1539.325562 
	C736.960388,1557.631226 770.208008,1558.628052 790.767822,1541.594238 
	C793.535156,1539.301514 796.159363,1536.835938 799.667236,1533.725586 
	C799.959106,1539.719482 800.202148,1544.710693 800.447754,1549.753296 
	C812.692566,1549.753296 824.304321,1549.753296 836.211792,1549.753296 
	C836.211792,1503.472778 836.211792,1457.438965 836.211792,1411.425537 
	C823.058899,1411.425537 810.306030,1411.425537 796.994141,1411.425537 
	C796.994141,1413.553467 796.995361,1415.337158 796.993958,1417.120972 
	C796.973206,1442.936768 797.095520,1468.754395 796.784973,1494.566772 
	C796.735352,1498.692505 795.591187,1503.300293 793.491821,1506.811646 
	C787.633423,1516.610718 772.288208,1521.749756 760.730530,1518.552368 
	C749.598145,1515.472778 743.188782,1506.697266 743.019470,1493.193848 
	C742.704041,1468.047852 742.722229,1442.897705 742.596252,1416.813477 
M1060.878052,1419.601562 
	C1046.303101,1409.633667 1029.929321,1406.868042 1012.761780,1408.174683 
	C984.127380,1410.353882 962.648621,1423.783447 951.447571,1450.650024 
	C940.272522,1477.453857 942.549133,1503.874512 960.106506,1527.250000 
	C979.099854,1552.537354 1014.982849,1560.596680 1046.033813,1548.368042 
	C1057.057007,1544.026978 1066.301147,1537.299561 1074.020996,1528.584717 
	C1066.442627,1520.723267 1059.191040,1513.200684 1051.792603,1505.525757 
	C1049.643066,1507.510864 1047.980591,1509.119385 1046.241577,1510.640381 
	C1033.883301,1521.448608 1017.420776,1524.374023 1004.549744,1517.369995 
	C989.755554,1509.319336 984.634888,1495.743042 984.701477,1479.715210 
	C984.764099,1464.640381 990.178772,1452.009033 1004.033875,1445.014893 
	C1017.818054,1438.056274 1031.198364,1441.097412 1043.539795,1449.664795 
	C1046.114380,1451.451904 1048.611572,1453.350586 1051.649048,1455.565918 
	C1059.031128,1447.686157 1066.235718,1439.995850 1073.996704,1431.711670 
	C1069.430664,1427.454102 1065.445435,1423.738037 1060.878052,1419.601562 
M537.335144,878.829956 
	C539.049500,861.830505 527.475159,845.267273 511.480438,844.158264 
	C495.921509,843.079407 480.169952,843.168884 464.605286,844.236755 
	C449.104523,845.300110 437.857330,858.260925 437.070892,873.585205 
	C436.282166,888.954102 446.549652,903.988953 461.894531,905.708496 
	C478.139069,907.528931 494.819366,907.588562 511.115448,906.177856 
	C525.272400,904.952332 534.953064,893.443481 537.335144,878.829956 
M574.495483,623.881714 
	C579.398315,631.476562 586.490540,635.981750 595.301453,636.963257 
	C603.354065,637.860291 611.526489,637.936829 619.645874,637.933167 
	C644.757935,637.921936 659.971741,615.264709 649.831604,592.438049 
	C645.307312,582.253235 637.181519,575.953613 625.321228,575.949829 
	C616.332336,575.946960 607.340088,575.802490 598.355347,575.996399 
	C587.236084,576.236267 579.081909,582.034241 573.546936,591.132263 
	C567.101501,601.726685 568.013123,612.644592 574.495483,623.881714 
M584.494019,900.039612 
	C603.715942,914.455994 629.802307,904.782349 634.762695,881.398438 
	C637.679077,867.650513 630.328735,853.019653 617.245544,846.529968 
	C604.903259,840.407898 589.198792,843.887756 580.147522,854.750244 
	C568.950500,868.187866 570.539429,886.975037 584.494019,900.039612 
M1146.263672,756.509033 
	C1145.281372,760.364441 1144.299072,764.219788 1143.316895,768.075134 
	C1142.993774,767.636719 1142.670654,767.198303 1142.347656,766.759827 
	C1164.644653,745.000366 1186.941650,723.240906 1209.692871,701.038208 
	C1194.202393,701.038208 1179.256348,700.977783 1164.313232,701.157104 
	C1163.160889,701.170959 1161.323730,702.670044 1160.992920,703.820435 
	C1156.029053,721.083252 1151.265137,738.403564 1146.263672,756.509033 
M888.469788,1349.681641 
	C886.337952,1350.595337 884.043518,1351.249512 882.102112,1352.466919 
	C872.973694,1358.190796 869.751709,1370.981079 874.696411,1381.274414 
	C879.425903,1391.119751 892.369141,1396.125488 903.410767,1392.379517 
	C914.231873,1388.708374 920.084839,1377.654175 917.457581,1365.849854 
	C914.667419,1353.313599 904.441284,1347.360352 888.469788,1349.681641 
M901.477539,1550.543213 
	C904.310425,1550.544556 907.160156,1550.350342 909.972290,1550.592773 
	C914.265747,1550.963013 915.517212,1548.805176 915.514038,1544.956787 
	C915.478394,1501.797852 915.470398,1458.639038 915.533630,1415.480225 
	C915.538513,1412.136719 914.320435,1410.459839 910.937866,1410.461426 
	C900.439880,1410.466187 889.941895,1410.479858 879.444031,1410.439209 
	C876.529358,1410.427856 875.348816,1411.626831 875.353394,1414.655273 
	C875.419128,1458.313965 875.422302,1501.972656 875.362732,1545.631470 
	C875.357666,1549.337036 876.918518,1550.654541 880.488464,1550.580200 
	C887.151001,1550.441406 893.818542,1550.542969 901.477539,1550.543213 
z"/>
<path fill="#09B1A1" opacity="1.000000" stroke="none" 
	d="
M1066.359375,886.359131 
	C1134.048950,819.035278 1201.489136,751.961975 1269.472656,684.348267 
	C1256.655518,677.536865 1244.451782,671.051392 1231.029907,663.918640 
	C1285.768433,642.729309 1339.268799,622.019226 1394.019897,600.825012 
	C1376.819092,658.170959 1360.120239,713.843445 1342.997803,770.927856 
	C1335.243530,758.002808 1328.230591,746.313538 1320.892334,734.082092 
	C1318.252686,736.587708 1316.074585,738.559570 1314.001831,740.636597 
	C1261.042725,793.705017 1208.074585,846.764343 1155.153198,899.870483 
	C1128.927979,926.187195 1102.796021,952.596802 1076.611816,978.954529 
	C1073.911743,981.672607 1071.234619,984.424377 1068.390503,986.986938 
	C1056.886597,997.352234 1042.521973,997.236877 1031.820801,986.067200 
	C1009.347656,962.610168 987.213379,938.828796 964.870422,915.246460 
	C948.026550,897.468140 931.069641,879.796936 914.178833,862.062988 
	C912.706848,860.517578 911.353394,858.859314 909.573730,856.830261 
	C914.062317,852.452087 918.371582,848.350037 922.567261,844.134949 
	C931.147766,835.514832 939.715576,826.881104 948.198547,818.165283 
	C956.806274,809.321167 962.707336,809.074951 971.450134,818.043457 
	C987.149658,834.148438 1002.632690,850.464355 1018.207581,866.690857 
	C1028.360229,877.268372 1038.511597,887.847351 1048.678101,898.411621 
	C1049.352295,899.112183 1050.150513,899.693298 1051.461060,900.820129 
	C1056.401001,896.028076 1061.255371,891.318848 1066.359375,886.359131 
z"/>
<path fill="#F48325" opacity="1.000000" stroke="none" 
	d="
M1197.000000,474.843781 
	C1230.796021,474.842743 1264.092041,474.842743 1298.260498,474.842743 
	C1297.080078,479.360535 1296.112305,483.298126 1295.021973,487.201447 
	C1283.026855,530.141602 1271.047974,573.086426 1258.895264,615.981934 
	C1258.305054,618.065125 1256.529419,620.601196 1254.651855,621.411865 
	C1228.690552,632.622009 1202.614502,643.566650 1175.412598,655.063904 
	C1177.010864,648.686768 1178.321655,642.992920 1179.869995,637.364319 
	C1184.765869,619.566833 1189.563599,601.738953 1194.747314,584.024780 
	C1201.556396,560.756226 1184.793335,545.878113 1165.326050,546.045654 
	C1147.667480,546.197632 1130.006592,546.070984 1112.346680,546.064453 
	C1029.711670,546.033752 947.076782,546.002075 864.441833,545.970825 
	C862.802979,545.970215 861.164124,545.970703 857.801392,545.970703 
	C861.537476,537.832458 864.099365,530.262939 868.203003,523.650024 
	C888.137512,491.526123 917.375549,475.108704 955.091431,474.965729 
	C1035.559937,474.660645 1116.030396,474.855042 1197.000000,474.843781 
z"/>
<path fill="#D1D1D1" opacity="1.000000" stroke="none" 
	d="
M999.000000,575.968140 
	C1043.827881,575.973816 1088.164185,576.486816 1132.479858,575.754761 
	C1152.323730,575.426941 1164.906738,590.206360 1159.813599,610.238342 
	C1155.818481,625.952026 1143.310303,639.203857 1124.132446,639.169312 
	C991.315857,638.930176 858.498596,639.021240 725.681580,638.974915 
	C703.709534,638.967224 687.697510,619.160828 693.034912,598.748840 
	C696.438782,585.731323 709.189758,576.008301 723.033325,576.004456 
	C814.855530,575.979004 906.677795,575.977539 999.000000,575.968140 
z"/>
<path fill="#D0D0D0" opacity="1.000000" stroke="none" 
	d="
M977.001953,1105.729004 
	C975.485352,1106.125366 973.969910,1106.861450 972.451904,1106.867065 
	C951.856506,1106.942017 931.260376,1106.984253 910.665283,1106.875488 
	C903.863770,1106.839478 897.062866,1106.072388 890.264771,1106.116821 
	C867.469238,1106.265869 844.675720,1106.764771 821.880249,1106.856201 
	C810.479492,1106.901978 799.075256,1106.083862 787.674500,1106.130859 
	C763.046997,1106.232178 738.420959,1106.654541 713.793884,1106.911987 
	C707.355408,1106.979248 700.915588,1106.922119 693.829468,1106.922119 
	C696.179688,1098.512451 698.277649,1090.888184 700.441467,1083.282715 
	C710.885437,1046.573608 721.467590,1009.903259 731.754272,973.150208 
	C737.289185,953.374695 750.878601,942.697876 770.054688,938.120361 
	C773.880798,937.207092 777.951355,937.012268 781.910034,937.006348 
	C829.559814,936.934753 877.209900,936.983154 924.859680,936.913208 
	C928.105835,936.908447 930.665588,937.391235 932.403870,940.507568 
	C933.268677,942.057983 934.835449,943.221375 936.103394,944.541809 
	C952.816040,961.944946 969.533325,979.343506 986.239441,996.752808 
	C986.671448,997.202942 986.991699,997.760254 987.776428,998.829468 
	C985.687927,998.920654 984.124695,999.048218 982.561523,999.048523 
	C928.247253,999.058228 873.932983,999.029602 819.618835,999.106506 
	C815.327271,999.112549 810.975220,999.509766 806.757935,1000.296997 
	C796.354431,1002.238770 789.504944,1008.672180 786.071533,1018.471313 
	C783.716980,1025.191040 782.063599,1032.159912 780.218201,1039.049927 
	C779.998169,1039.871460 780.541809,1040.897705 781.102783,1042.392578 
	C782.151367,1043.343262 782.785339,1043.869507 783.512634,1044.096313 
	C793.836609,1047.316895 804.196472,1050.423828 814.502747,1053.699585 
	C853.986084,1066.249023 893.459656,1078.829468 932.923035,1091.441528 
	C947.635376,1096.143311 962.310120,1100.963013 977.001953,1105.729004 
z"/>
<path fill="#D1D1D1" opacity="1.000000" stroke="none" 
	d="
M1026.000000,754.065186 
	C1043.161255,754.067261 1059.823486,753.961853 1076.483032,754.134705 
	C1081.600098,754.187805 1086.895142,754.302734 1091.786499,755.602173 
	C1105.369995,759.210876 1110.289185,771.760193 1108.654907,784.126221 
	C1107.726562,791.151550 1105.625000,798.040039 1103.760742,804.911194 
	C1103.268677,806.724609 1101.948975,808.497559 1100.582520,809.861328 
	C1085.986084,824.429016 1071.303711,838.910461 1056.170044,853.885437 
	C1052.365479,849.715698 1048.460327,845.247437 1044.354492,840.971924 
	C1032.824707,828.965698 1021.225769,817.025940 1009.626526,805.086731 
	C1004.309937,799.614258 999.354370,793.687317 993.495117,788.865601 
	C977.461670,775.671509 949.375488,776.608337 932.698425,791.754578 
	C924.091919,799.571045 915.433838,807.341064 906.528992,814.810059 
	C904.750671,816.301697 901.747803,816.941528 899.307556,816.946167 
	C845.492065,817.049438 791.676208,817.007874 737.860474,816.993652 
	C725.531189,816.990417 713.201782,817.008911 700.872559,816.976501 
	C685.774902,816.936890 673.118103,807.871826 669.758301,793.136536 
	C666.556824,779.095947 669.731201,766.532104 683.991272,757.986816 
	C688.538757,755.261841 694.687561,754.109558 700.106567,754.100769 
	C808.570801,753.925232 917.035461,754.022522 1026.000000,754.065186 
z"/>
<path fill="#0BB09F" opacity="1.000000" stroke="none" 
	d="
M674.656677,1571.274902 
	C675.821777,1572.917969 676.765381,1574.280762 677.969421,1576.019775 
	C669.321350,1584.747559 659.192322,1590.716919 647.068604,1592.909668 
	C623.381470,1597.193604 603.498535,1589.135498 586.285400,1573.354858 
	C581.516235,1568.982544 577.239380,1564.021851 573.116699,1559.017944 
	C571.118469,1556.592651 569.129395,1555.717773 566.015930,1555.507080 
	C525.343994,1552.754639 493.654602,1535.321411 476.403320,1497.233887 
	C450.895386,1440.917114 478.160126,1368.118164 549.081482,1355.444824 
	C583.983093,1349.207886 616.542114,1356.171143 642.622742,1382.412476 
	C664.637817,1404.563110 673.532227,1431.838745 671.121277,1462.592163 
	C668.171387,1500.219971 648.294861,1526.984619 615.874023,1545.119751 
	C615.005371,1545.605713 614.117249,1546.056641 613.248474,1546.542358 
	C613.118530,1546.614746 613.045593,1546.789307 612.946289,1546.916626 
	C619.576660,1560.492920 635.529053,1561.761963 660.641113,1550.450073 
	C665.201843,1557.242676 669.818542,1564.118530 674.656677,1571.274902 
M603.700073,1509.255127 
	C627.753418,1492.357910 637.034668,1461.286377 626.881958,1431.356567 
	C612.377747,1388.598999 565.215515,1380.650024 536.737976,1399.259277 
	C513.696350,1414.316528 505.861725,1436.947266 509.004395,1463.342896 
	C515.644409,1519.113403 571.687988,1529.478394 603.700073,1509.255127 
z"/>
<path fill="#D1D1D1" opacity="1.000000" stroke="none" 
	d="
M938.000000,728.937256 
	C893.244873,728.937561 848.989746,728.937561 803.476868,728.937561 
	C804.997986,723.182373 806.033508,718.961365 807.231323,714.786926 
	C811.579102,699.634827 816.039917,684.514832 820.315735,669.342651 
	C821.232544,666.089233 822.830750,664.954956 826.302917,664.958618 
	C920.439270,665.058777 1014.575684,664.995178 1108.712036,665.086365 
	C1127.174438,665.104248 1138.464355,680.141846 1134.481934,698.228516 
	C1130.066162,718.283386 1116.004272,728.839355 1095.449585,728.893311 
	C1043.133423,729.030701 990.816589,728.937744 938.000000,728.937256 
z"/>
<path fill="#566472" opacity="1.000000" stroke="none" 
	d="
M977.416138,1105.816406 
	C962.310120,1100.963013 947.635376,1096.143311 932.923035,1091.441528 
	C893.459656,1078.829468 853.986084,1066.249023 814.502747,1053.699585 
	C804.196472,1050.423828 793.836609,1047.316895 783.512634,1044.096313 
	C782.785339,1043.869507 782.151367,1043.343262 781.419373,1042.641602 
	C867.653748,1042.251587 953.942749,1042.103516 1040.231689,1042.160400 
	C1058.185913,1042.172241 1073.059082,1036.193604 1085.817139,1023.301392 
	C1112.878906,995.955383 1140.478638,969.141846 1167.868774,942.121094 
	C1169.645386,940.368530 1171.515625,938.711121 1173.671631,937.011353 
	C1174.000854,937.013184 1173.962524,936.987915 1173.962524,936.987915 
	C1170.990356,948.396118 1168.150635,959.840820 1165.018311,971.204895 
	C1158.564209,994.620483 1152.832397,1018.283997 1145.204346,1041.315918 
	C1133.387573,1076.994995 1107.866943,1097.861572 1071.096558,1104.884888 
	C1064.764282,1106.094360 1058.199097,1106.471924 1051.734863,1106.532593 
	C1029.575928,1106.739868 1007.414062,1106.658813 985.253418,1106.616455 
	C982.778564,1106.611816 980.304688,1106.152466 977.416138,1105.816406 
z"/>
<path fill="#546170" opacity="1.000000" stroke="none" 
	d="
M665.894043,908.128967 
	C660.417114,908.126404 655.425415,908.126404 649.440674,908.126404 
	C656.750366,898.307251 662.015442,888.351501 662.354492,876.445801 
	C662.697449,864.403625 658.600159,853.955444 650.981506,844.154236 
	C652.484009,843.951050 653.516418,843.691589 654.549561,843.688965 
	C714.693481,843.535034 774.837463,843.383911 834.981506,843.349304 
	C836.931335,843.348145 839.462097,843.984985 840.745178,845.287048 
	C861.075928,865.919006 881.246643,886.708740 902.105530,908.131531 
	C822.967102,908.131531 744.673157,908.131531 665.894043,908.128967 
z"/>
<path fill="#0CB1A0" opacity="1.000000" stroke="none" 
	d="
M1098.045166,1429.000000 
	C1098.044800,1403.542114 1098.044800,1378.584229 1098.044800,1353.247314 
	C1111.057251,1353.247314 1123.627319,1353.247314 1136.824219,1353.247314 
	C1136.824219,1390.353271 1136.824219,1427.415649 1136.824219,1465.533813 
	C1138.399414,1464.332764 1139.184937,1463.915161 1139.733154,1463.289429 
	C1154.222656,1446.751343 1168.666504,1430.172852 1183.203613,1413.676636 
	C1184.209717,1412.534790 1185.869263,1411.276978 1187.241699,1411.257446 
	C1200.196289,1411.074219 1213.154785,1411.148560 1227.252075,1411.148560 
	C1225.743042,1413.168701 1224.895264,1414.464478 1223.890381,1415.624146 
	C1210.033813,1431.615601 1196.250244,1447.672485 1182.196167,1463.488892 
	C1179.651489,1466.352783 1179.850098,1468.116943 1181.729248,1471.150146 
	C1197.426514,1496.485840 1212.928101,1521.942749 1228.475464,1547.371094 
	C1228.806641,1547.912964 1228.980713,1548.550903 1229.433472,1549.636108 
	C1227.741821,1549.795166 1226.351685,1550.033569 1224.960449,1550.039673 
	C1213.961792,1550.087402 1202.960205,1549.957642 1191.965942,1550.188354 
	C1188.655640,1550.257812 1186.936890,1549.078735 1185.347046,1546.266846 
	C1176.580933,1530.762695 1167.615967,1515.370850 1158.693848,1499.955200 
	C1157.365356,1497.659790 1155.902344,1495.442383 1153.924194,1492.259888 
	C1147.991699,1500.451782 1142.335815,1508.139526 1136.877075,1515.964966 
	C1136.243774,1516.872681 1136.664185,1518.542969 1136.662720,1519.859741 
	C1136.651123,1529.655396 1136.656494,1539.450928 1136.656494,1549.602295 
	C1123.760986,1549.602295 1111.218384,1549.602295 1098.045532,1549.602295 
	C1098.045532,1509.388550 1098.045532,1469.444214 1098.045166,1429.000000 
z"/>
<path fill="#F48427" opacity="1.000000" stroke="none" 
	d="
M1307.494873,1548.434082 
	C1262.402100,1533.564575 1236.393433,1492.563477 1241.530273,1445.582275 
	C1245.002563,1413.824219 1258.752930,1388.464233 1286.499756,1371.737549 
	C1306.691406,1359.565430 1328.900391,1356.612671 1352.002441,1359.056763 
	C1373.293579,1361.309204 1392.502808,1368.309082 1407.650146,1384.214600 
	C1408.892822,1385.519409 1410.085571,1386.871704 1411.693359,1388.630859 
	C1404.502441,1396.599121 1397.531006,1404.324219 1390.364258,1412.265747 
	C1385.655151,1408.714600 1381.494751,1405.436157 1377.192505,1402.356201 
	C1354.041382,1385.783447 1321.554321,1385.611206 1300.835449,1403.071777 
	C1280.153198,1420.501587 1274.607544,1443.940063 1279.231812,1469.572998 
	C1283.441650,1492.907837 1297.014771,1509.767090 1319.972778,1517.172729 
	C1344.328369,1525.029175 1366.312134,1519.393799 1385.430786,1502.536743 
	C1390.687866,1497.901611 1390.653687,1497.721802 1395.860840,1502.525146 
	C1401.719971,1507.929688 1407.449341,1513.474976 1413.185547,1518.911865 
	C1392.825439,1546.401855 1349.321533,1561.265991 1307.494873,1548.434082 
z"/>
<path fill="#F48427" opacity="1.000000" stroke="none" 
	d="
M1502.009399,1549.949585 
	C1487.698364,1549.893066 1487.567749,1549.943970 1482.578979,1537.151978 
	C1468.666992,1501.479126 1454.890503,1465.753540 1441.027344,1430.061523 
	C1432.891846,1409.116333 1424.687012,1388.197876 1416.534180,1367.259399 
	C1415.952026,1365.764404 1415.541870,1364.202515 1414.843750,1362.022339 
	C1426.854492,1362.022339 1438.160522,1361.900513 1449.456055,1362.190918 
	C1450.736084,1362.223755 1452.534302,1364.355591 1453.119141,1365.885986 
	C1463.515869,1393.096313 1473.800293,1420.350098 1484.026123,1447.625488 
	C1490.104492,1463.837769 1496.032104,1480.106445 1502.053345,1496.340210 
	C1502.545044,1497.666016 1503.236816,1498.917480 1504.419800,1501.458130 
	C1507.489258,1493.396362 1510.172119,1486.510986 1512.738647,1479.582642 
	C1525.865967,1444.146118 1538.963135,1408.698364 1552.071899,1373.255005 
	C1552.129639,1373.098877 1552.207764,1372.950562 1552.267822,1372.795166 
	C1556.612427,1361.567505 1556.612671,1361.521851 1568.913574,1361.597290 
	C1576.241211,1361.642212 1583.567993,1361.854004 1590.894653,1362.008423 
	C1591.206665,1362.015015 1591.515015,1362.199951 1592.543945,1362.538086 
	C1590.177612,1369.003540 1587.958984,1375.507690 1585.435059,1381.891113 
	C1567.140015,1428.162598 1548.772583,1474.405273 1530.455811,1520.668091 
	C1527.087646,1529.175049 1523.811401,1537.719116 1520.565430,1546.273560 
	C1519.562378,1548.916870 1518.054810,1550.254272 1514.998291,1550.054932 
	C1510.849487,1549.784424 1506.671387,1549.964478 1502.009399,1549.949585 
z"/>
<path fill="#0BB09F" opacity="1.000000" stroke="none" 
	d="
M742.598877,1417.281372 
	C742.722229,1442.897705 742.704041,1468.047852 743.019470,1493.193848 
	C743.188782,1506.697266 749.598145,1515.472778 760.730530,1518.552368 
	C772.288208,1521.749756 787.633423,1516.610718 793.491821,1506.811646 
	C795.591187,1503.300293 796.735352,1498.692505 796.784973,1494.566772 
	C797.095520,1468.754395 796.973206,1442.936768 796.993958,1417.120972 
	C796.995361,1415.337158 796.994141,1413.553467 796.994141,1411.425537 
	C810.306030,1411.425537 823.058899,1411.425537 836.211792,1411.425537 
	C836.211792,1457.438965 836.211792,1503.472778 836.211792,1549.753296 
	C824.304321,1549.753296 812.692566,1549.753296 800.447754,1549.753296 
	C800.202148,1544.710693 799.959106,1539.719482 799.667236,1533.725586 
	C796.159363,1536.835938 793.535156,1539.301514 790.767822,1541.594238 
	C770.208008,1558.628052 736.960388,1557.631226 718.985840,1539.325562 
	C709.457703,1529.621582 705.086426,1517.418091 704.079773,1504.204712 
	C703.157959,1492.105835 703.223938,1479.921997 703.109192,1467.773193 
	C702.950256,1450.952637 703.029358,1434.129761 703.007202,1417.307861 
	C703.004822,1415.530273 703.006836,1413.752686 703.006836,1411.727783 
	C716.357971,1411.727783 729.097595,1411.727783 742.264893,1411.727783 
	C742.387268,1413.605835 742.491760,1415.209717 742.598877,1417.281372 
z"/>
<path fill="#0CB1A0" opacity="1.000000" stroke="none" 
	d="
M1061.169189,1419.811768 
	C1065.445435,1423.738037 1069.430664,1427.454102 1073.996704,1431.711670 
	C1066.235718,1439.995850 1059.031128,1447.686157 1051.649048,1455.565918 
	C1048.611572,1453.350586 1046.114380,1451.451904 1043.539795,1449.664795 
	C1031.198364,1441.097412 1017.818054,1438.056274 1004.033875,1445.014893 
	C990.178772,1452.009033 984.764099,1464.640381 984.701477,1479.715210 
	C984.634888,1495.743042 989.755554,1509.319336 1004.549744,1517.369995 
	C1017.420776,1524.374023 1033.883301,1521.448608 1046.241577,1510.640381 
	C1047.980591,1509.119385 1049.643066,1507.510864 1051.792603,1505.525757 
	C1059.191040,1513.200684 1066.442627,1520.723267 1074.020996,1528.584717 
	C1066.301147,1537.299561 1057.057007,1544.026978 1046.033813,1548.368042 
	C1014.982849,1560.596680 979.099854,1552.537354 960.106506,1527.250000 
	C942.549133,1503.874512 940.272522,1477.453857 951.447571,1450.650024 
	C962.648621,1423.783447 984.127380,1410.353882 1012.761780,1408.174683 
	C1029.929321,1406.868042 1046.303101,1409.633667 1061.169189,1419.811768 
z"/>
<path fill="#546170" opacity="1.000000" stroke="none" 
	d="
M537.245789,879.246948 
	C534.953064,893.443481 525.272400,904.952332 511.115448,906.177856 
	C494.819366,907.588562 478.139069,907.528931 461.894531,905.708496 
	C446.549652,903.988953 436.282166,888.954102 437.070892,873.585205 
	C437.857330,858.260925 449.104523,845.300110 464.605286,844.236755 
	C480.169952,843.168884 495.921509,843.079407 511.480438,844.158264 
	C527.475159,845.267273 539.049500,861.830505 537.245789,879.246948 
z"/>
<path fill="#D1D1D1" opacity="1.000000" stroke="none" 
	d="
M574.303223,623.565430 
	C568.013123,612.644592 567.101501,601.726685 573.546936,591.132263 
	C579.081909,582.034241 587.236084,576.236267 598.355347,575.996399 
	C607.340088,575.802490 616.332336,575.946960 625.321228,575.949829 
	C637.181519,575.953613 645.307312,582.253235 649.831604,592.438049 
	C659.971741,615.264709 644.757935,637.921936 619.645874,637.933167 
	C611.526489,637.936829 603.354065,637.860291 595.301453,636.963257 
	C586.490540,635.981750 579.398315,631.476562 574.303223,623.565430 
z"/>
<path fill="#546170" opacity="1.000000" stroke="none" 
	d="
M584.216919,899.813599 
	C570.539429,886.975037 568.950500,868.187866 580.147522,854.750244 
	C589.198792,843.887756 604.903259,840.407898 617.245544,846.529968 
	C630.328735,853.019653 637.679077,867.650513 634.762695,881.398438 
	C629.802307,904.782349 603.715942,914.455994 584.216919,899.813599 
z"/>
<path fill="#E67527" opacity="1.000000" stroke="none" 
	d="
M1146.358887,756.109680 
	C1151.265137,738.403564 1156.029053,721.083252 1160.992920,703.820435 
	C1161.323730,702.670044 1163.160889,701.170959 1164.313232,701.157104 
	C1179.256348,700.977783 1194.202393,701.038208 1209.692871,701.038208 
	C1186.941650,723.240906 1164.644653,745.000366 1142.347656,766.759827 
	C1142.670654,767.198303 1142.993774,767.636719 1143.316895,768.075134 
	C1144.299072,764.219788 1145.281372,760.364441 1146.358887,756.109680 
z"/>
<path fill="#0CB1A0" opacity="1.000000" stroke="none" 
	d="
M888.877808,1349.565430 
	C904.441284,1347.360352 914.667419,1353.313599 917.457581,1365.849854 
	C920.084839,1377.654175 914.231873,1388.708374 903.410767,1392.379517 
	C892.369141,1396.125488 879.425903,1391.119751 874.696411,1381.274414 
	C869.751709,1370.981079 872.973694,1358.190796 882.102112,1352.466919 
	C884.043518,1351.249512 886.337952,1350.595337 888.877808,1349.565430 
z"/>
<path fill="#6EC8BD" opacity="1.000000" stroke="none" 
	d="
M900.980774,1550.543823 
	C893.818542,1550.542969 887.151001,1550.441406 880.488464,1550.580200 
	C876.918518,1550.654541 875.357666,1549.337036 875.362732,1545.631470 
	C875.422302,1501.972656 875.419128,1458.313965 875.353394,1414.655273 
	C875.348816,1411.626831 876.529358,1410.427856 879.444031,1410.439209 
	C889.941895,1410.479858 900.439880,1410.466187 910.937866,1410.461426 
	C914.320435,1410.459839 915.538513,1412.136719 915.533630,1415.480225 
	C915.470398,1458.639038 915.478394,1501.797852 915.514038,1544.956787 
	C915.517212,1548.805176 914.265747,1550.963013 909.972290,1550.592773 
	C907.160156,1550.350342 904.310425,1550.544556 900.980774,1550.543823 
M913.901978,1500.180420 
	C913.679932,1490.208252 913.328003,1480.236938 913.264343,1470.263794 
	C913.151611,1452.611084 913.148682,1434.956909 913.256653,1417.304321 
	C913.279175,1413.613647 912.341980,1411.780762 908.224792,1411.875610 
	C899.236572,1412.082642 890.238892,1412.003784 881.247375,1411.876343 
	C877.930847,1411.829346 876.951721,1413.285278 876.955750,1416.405029 
	C877.010071,1458.872925 877.008484,1501.340698 876.953796,1543.808594 
	C876.948730,1547.766479 878.816833,1549.059448 882.509766,1548.990845 
	C889.335632,1548.864258 896.165405,1548.951294 902.993591,1548.947876 
	C913.735596,1548.942627 914.664673,1547.923950 913.871582,1536.965820 
	C913.811829,1536.140259 913.513672,1535.322754 913.519653,1534.502930 
	C913.600708,1523.371216 913.715942,1512.239868 913.901978,1500.180420 
z"/>
<path fill="#566472" opacity="1.000000" stroke="none" 
	d="
M1174.014160,937.032043 
	C1174.027466,937.050903 1174.196289,936.635803 1174.196289,936.635803 
	C1174.196289,936.635803 1174.176392,936.891968 1174.069458,936.939941 
	C1173.962524,936.987915 1174.000854,937.013184 1174.014160,937.032043 
z"/>
<path fill="#FCFFFE" opacity="1.000000" stroke="none" 
	d="
M603.405151,1509.469482 
	C571.687988,1529.478394 515.644409,1519.113403 509.004395,1463.342896 
	C505.861725,1436.947266 513.696350,1414.316528 536.737976,1399.259277 
	C565.215515,1380.650024 612.377747,1388.598999 626.881958,1431.356567 
	C637.034668,1461.286377 627.753418,1492.357910 603.405151,1509.469482 
z"/>
<path fill="#0BB09F" opacity="1.000000" stroke="none" 
	d="
M913.862366,1500.644409 
	C913.715942,1512.239868 913.600708,1523.371216 913.519653,1534.502930 
	C913.513672,1535.322754 913.811829,1536.140259 913.871582,1536.965820 
	C914.664673,1547.923950 913.735596,1548.942627 902.993591,1548.947876 
	C896.165405,1548.951294 889.335632,1548.864258 882.509766,1548.990845 
	C878.816833,1549.059448 876.948730,1547.766479 876.953796,1543.808594 
	C877.008484,1501.340698 877.010071,1458.872925 876.955750,1416.405029 
	C876.951721,1413.285278 877.930847,1411.829346 881.247375,1411.876343 
	C890.238892,1412.003784 899.236572,1412.082642 908.224792,1411.875610 
	C912.341980,1411.780762 913.279175,1413.613647 913.256653,1417.304321 
	C913.148682,1434.956909 913.151611,1452.611084 913.264343,1470.263794 
	C913.328003,1480.236938 913.679932,1490.208252 913.862366,1500.644409 
z"/>
</svg>